<?xml version="1.0" encoding="UTF-8" standalone="no"?>
<!-- Created with Inkscape (http://www.inkscape.org/) -->

<svg
   width="512"
   height="512"
   viewBox="0 0 135.46666 135.46667"
   version="1.1"
   id="svg1009"
   xml:space="preserve"
   inkscape:version="1.2.2 (b0a8486541, 2022-12-01)"
   sodipodi:docname="logo.svg"
   xmlns:inkscape="http://www.inkscape.org/namespaces/inkscape"
   xmlns:sodipodi="http://sodipodi.sourceforge.net/DTD/sodipodi-0.dtd"
   xmlns="http://www.w3.org/2000/svg"
   xmlns:svg="http://www.w3.org/2000/svg"><sodipodi:namedview
     id="namedview1011"
     pagecolor="#ffffff"
     bordercolor="#000000"
     borderopacity="0.25"
     inkscape:showpageshadow="2"
     inkscape:pageopacity="0.0"
     inkscape:pagecheckerboard="0"
     inkscape:deskcolor="#d1d1d1"
     inkscape:document-units="mm"
     showgrid="false"
     inkscape:zoom="1.1893044"
     inkscape:cx="261.49739"
     inkscape:cy="288.40388"
     inkscape:window-width="1680"
     inkscape:window-height="978"
     inkscape:window-x="0"
     inkscape:window-y="0"
     inkscape:window-maximized="1"
     inkscape:current-layer="layer1" /><defs
     id="defs1006" /><g
     inkscape:label="Capa 1"
     inkscape:groupmode="layer"
     id="layer1"><rect
       style="fill:#000000;stroke:none;stroke-width:1.32292;stroke-linecap:round;fill-opacity:1"
       id="rect1390"
       width="135.46666"
       height="135.46666"
       x="3.5603841e-06"
       y="3.5603841e-06" /><path
       style="fill:#000000;stroke-width:1.32292;stroke-linecap:round"
       d="m 36.065116,140.65787 c 0,0 3.350633,4.83924 10.661626,-15.26589 7.31099,-20.10513 9.10663,-36.599201 9.10663,-36.599201 l 5.567169,0.891627 c 0,0 -2.914494,33.220184 -12.10559,54.828654 -9.191095,21.60847 -13.229835,-3.85519 -13.229835,-3.85519 z"
       id="path901" /><g
       id="g844"
       transform="matrix(1.0968208,0,0,1.0968208,68.368628,-135.11839)"><path
         style="fill:#b0c83e;stroke-width:0.251354"
         d="m -1.4538093,225.84661 c -2.9435029,-0.79272 -5.1048221,-2.45095 -6.0825574,-4.66672 -1.0088983,-2.28639 -0.7089386,-7.52421 -0.090127,-12.22639 0.1682868,-1.27876 0.5952861,-3.10907 1.4555464,-3.25918 0.9155146,-0.15976 -2.3375314,1.44653 -3.0099894,2.07275 -3.795844,3.53485 -9.835057,4.39571 -14.882684,2.12146 -6.236837,-2.81006 -12.525709,-10.97773 -14.018988,-18.20717 -0.816888,-3.95481 -0.381286,-5.66008 2.019518,-7.90592 3.021301,-2.82627 6.963205,-4.21846 12.744408,-4.50101 l 3.46272,-0.16923 -2.315075,-1.50813 c -3.1379,-2.04414 -5.927907,-4.81811 -6.952193,-6.91224 -1.107968,-2.2652 -1.223658,-3.47916 -0.576908,-6.0536 1.855387,-7.38551 8.483021,-15.45496 15.471964,-18.8378 3.021224,-1.46236 5.5059645,-2.04643 8.8118805,-2.07137 6.5525338,-0.0494 10.7690576,2.89328 11.9101805,8.3121 0.385434,1.83029 0.3369754,5.79898 -0.100358,8.21947 -0.199824,1.10596 -0.365542,2.09697 -0.3682637,2.20225 -0.00276,0.10527 0.6234764,-0.32046 1.3915438,-0.94605 4.9767739,-4.05364 12.2728539,-4.98833 19.2929719,-2.47158 5.217979,1.87067 8.656677,5.28796 9.822596,9.76142 0.275583,1.05738 0.362358,2.25938 0.290332,4.02167 -0.243127,5.9489 -3.177331,10.99335 -7.92916,13.63175 -2.361164,1.31101 -7.753427,2.76115 -11.307784,3.04101 l -2.133358,0.16797 1.756327,1.04468 c 9.636351,5.73181 13.369091,15.65653 8.640255,22.97296 -2.858325,4.42238 -9.50432,9.21568 -15.42997,11.12857 -4.2722772,1.37915 -9.0543958,1.79737 -11.8728273,1.03833 z m 1.58977464,-35.79629 c 2.20797006,-0.96651 3.64971766,-3.11771 3.82459556,-5.70659 0.2766476,-4.09549 -2.6453976,-7.22304 -6.7376366,-7.21146 -1.9369503,0.006 -3.080298,0.44684 -4.5148189,1.74284 -4.1337144,3.73456 -2.2394604,10.53303 3.2580477,11.6931 1.1764383,0.24825 2.912019,0.0327 4.16981224,-0.51789 z m -4.92387474,-1.16601 c -4.3851216,-1.89941 -4.3508006,-8.17682 0.054767,-10.01714 1.9024197,-0.79468 4.28777096,-0.27551 5.8125579,1.26508 1.1413567,1.1532 1.5265541,2.0991 1.5265541,3.74867 0,1.64957 -0.3851974,2.59548 -1.5265541,3.74867 -1.52044164,1.53622 -3.9954833,2.06549 -5.8673226,1.25472 z m 4.61700676,-1.33832 c 1.04934325,-0.64853 1.91820194,-2.30864 1.91820194,-3.66507 0,-2.88252 -2.849922,-5.12031 -5.5835187,-4.38423 -2.0923302,0.56341 -3.745715,3.06167 -3.3659572,5.08596 0.6114418,3.25927 4.1437119,4.74795 7.03127396,2.96334 z M -10.962979,186.88288 c -0.163758,-2.65924 -0.140939,-2.88179 0.360909,-3.51978 0.559586,-0.7114 0.6800625,-2.14261 0.284368,-3.37816 -0.148352,-0.46323 -0.20783,-0.20448 -0.2263,0.98447 -0.01378,0.88706 -0.1031,1.5348 -0.198489,1.43941 -0.09539,-0.0954 -0.144167,-0.72486 -0.108397,-1.39882 0.03577,-0.67396 -0.05585,-1.3001 -0.203596,-1.39141 -0.178226,-0.11016 -0.283236,0.36767 -0.312019,1.41976 l -0.04339,1.5858 -0.164586,-1.6338 -0.164587,-1.6338 -0.04339,1.57097 c -0.02386,0.86402 -0.156494,1.57095 -0.294739,1.57095 -0.138245,0 -0.265146,-0.70693 -0.282003,-1.57095 l -0.03065,-1.57097 -0.217583,1.49266 c -0.187331,1.28514 -0.148128,1.61037 0.282005,2.33939 0.41895,0.71007 0.499587,1.30422 0.499587,3.68105 0,1.55888 0.06761,2.90193 0.150252,2.98456 0.08264,0.0827 0.31611,0.0866 0.518827,0.009 0.308406,-0.11835 0.340042,-0.60487 0.193769,-2.98016 z M 6.3096658,184.0066 c -0.048222,-3.11051 -0.1717847,-5.74509 -0.2745738,-5.85463 -0.4600109,-0.49024 -0.8594127,0.75123 -1.0179288,3.16404 -0.1307095,1.98951 -0.093527,2.62748 0.1657351,2.84381 0.2597471,0.21673 0.2974621,0.88008 0.1692188,2.97608 l -0.1650283,2.69719 0.6051319,-0.0855 0.6051301,-0.0855 z m 2.5092616,2.85132 c -0.085044,-2.58266 -0.049267,-2.85064 0.4753462,-3.56021 0.4424584,-0.59845 0.5343744,-0.9703 0.4176474,-1.6896 -0.180346,-1.11134 -0.8025318,-2.12589 -1.3037366,-2.12589 -1.0747701,0 -1.6769694,3.00156 -0.7972675,3.97383 0.3918161,0.43304 0.4534302,0.90903 0.4182707,3.23126 -0.051062,3.37233 -0.082688,3.15402 0.4418355,3.0504 0.3940876,-0.0779 0.4302978,-0.3776 0.3479043,-2.87979 z"
         id="path848"
         sodipodi:nodetypes="ssssssssscsssscssccssssscsssssscssssssssssssssscssssssscccssscsssccccssssscccssssssscs" /><path
         style="fill:#ffffff;stroke:#ffffff;stroke-width:1.32292;stroke-linecap:round"
         d="m -13.419019,185.77908 c -0.09968,-0.83638 -0.222272,-5.49134 -0.222272,-5.49134 l 0.789861,-1.41279 c 0,0 2.91601,-0.38437 3.4208297,-0.38437 0.5048197,0 5.3351138,-2.15712 5.3351138,-2.15712 l 7.4057562,0.4464 4.1530455,0.67279 3.0073578,2.20475 0.47984,2.41823 -0.832453,3.29749 c 0,0 -0.02268,4.26459 -0.5625092,4.69334 -0.539824,0.42874 -3.0727957,0.90587 -3.0727957,0.90587 l -5.1280631,0.25762 -8.2471232,-0.0159 -5.2063408,-0.68203 -0.634791,-1.68592 z"
         id="path966"
         sodipodi:nodetypes="cccsccccccscccccc" /><path
         style="fill:#070808;stroke-width:0.264583"
         d="m 0.36859688,228.34387 c -6.98416398,-1.09176 -9.40662298,-5.52942 -8.55032798,-15.66321 0.164068,-1.94166 0.364895,-3.79818 0.446283,-4.1256 0.212471,-0.85477 -0.05786,-0.74875 -1.57975,0.61956 -4.5394159,4.08133 -11.0685019,4.62247 -16.8342799,1.39527 -4.540264,-2.54127 -8.660767,-7.24711 -11.406414,-13.02675 -2.167083,-4.56175 -2.777308,-8.42062 -1.751873,-11.07828 0.931007,-2.41293 5.20213,-5.34635 9.305638,-6.39115 2.218489,-0.56485 6.370101,-1.02136 8.299979,-0.91266 0.892572,0.0503 1.620311,0.0319 1.617195,-0.0409 -0.0031,-0.0728 -1.045131,-0.78264 -2.315586,-1.57751 -2.877119,-1.80008 -6.85744,-5.68484 -7.736356,-7.55062 -1.725821,-3.66359 -0.460167,-8.90811 3.633901,-15.05788 3.278333,-4.92444 8.601263,-9.50706 13.316223,-11.46422 5.2926839,-2.19696 11.2862479,-2.20328 15.3895969,-0.0162 3.92817,2.09369 5.76183,6.21305 5.39434,12.11852 -0.086,1.38245 -0.32336,3.28745 -0.52739,4.23334 -0.20404,0.94588 -0.33641,1.75706 -0.29417,1.80262 0.0422,0.0456 0.71423,-0.40083 1.49329,-0.99197 5.7057201,-4.32943 12.3871101,-5.31186 19.6727201,-2.89268 8.25,2.7394 12.1775,8.28559 11.25282,15.8906 -0.52028,4.27903 -2.04102,7.56778 -4.75572,10.28477 -2.09491,2.09667 -3.87263,3.14295 -7.17734,4.22424 -2.50911,0.82097 -7.7263,1.84492 -9.40021,1.84492 -0.49487,0 -0.89621,0.0893 -0.89188,0.19843 0.004,0.10915 0.71831,0.60528 1.58664,1.10253 2.33537,1.33735 5.64947,4.08392 7.16074,5.9345 1.72492,2.11219 3.27416,5.33756 3.79496,7.90078 1.10148,5.42108 -0.12272,8.93497 -4.7404,13.60664 -4.81245,4.86872 -11.06426,8.25473 -17.2142101,9.3233 -2.36647,0.41118 -5.63738,0.55206 -7.18841902,0.30961 z m 8.44518902,-2.75939 c 4.7389801,-1.20872 9.9944801,-4.20991 13.6931601,-7.81956 4.15402,-4.05404 5.41809,-7.64554 4.39302,-12.48151 -1.13722,-5.36512 -5.55837,-10.26398 -12.39392,-13.73311 -3.03728,-1.54146 -3.89463,-1.83635 -3.89463,-1.3396 0,0.53528 -4.1267501,4.58427 -5.8187301,5.7091 -2.19994,1.46252 -3.5585,2.07851 -5.965152,2.70469 l -1.842162,0.4793 -0.697592,2.77433 c -2.090203,8.31275 -2.579151,17.13193 -1.140733,20.5754 1.566122,3.74918 6.663999,4.91707 13.666739,3.13096 z M -15.234416,210.07229 c 2.019046,-0.62362 4.028588,-2.04951 5.6632759,-4.01843 1.085792,-1.30779 3.778387,-6.30004 3.778387,-7.00537 0,-0.1738 -0.775766,-0.69791 -1.723927,-1.16469 -4.5878499,-2.25859 -7.9932939,-8.39731 -7.7599659,-13.98825 l 0.08244,-1.9754 -1.05396,-0.2533 c -0.579678,-0.13932 -3.197085,-0.26037 -5.81646,-0.26901 -5.252423,-0.0173 -7.046195,0.28738 -10.072484,1.71086 -1.852554,0.8714 -3.904643,2.58073 -4.538955,3.78082 -0.72145,1.36495 -0.545848,4.08114 0.459716,7.11081 2.462032,7.41785 9.005403,14.69518 14.548598,16.1805 2.070878,0.55489 4.413346,0.51537 6.433335,-0.10854 z M 0.09856288,190.87425 c 3.98925302,-1.35928 6.00546302,-6.32746 4.08696302,-10.07077 -2.23561,-4.36205 -7.638941,-5.35763 -11.479061,-2.11504 -3.2982049,2.785 -2.8001829,9.0303 0.902594,11.31874 2.135775,1.31998 4.308353,1.61026 6.48950398,0.86707 z m -3.71231598,-1.41843 c -1.530326,-0.3831 -2.862789,-1.47873 -3.601688,-2.96151 -0.905574,-1.81725 -0.896456,-3.1757 0.03363,-5.01031 2.624643,-5.17718 10.384897,-3.28589 10.384897,2.53095 0,1.38253 -0.55537,2.88514 -1.40169,3.79245 -1.26976002,1.36126 -3.658102,2.08829 -5.415145,1.64842 z m 3.05501998,-0.95699 c 1.445799,-0.60394 2.40191902,-1.65027 2.83229902,-3.09952 0.58589,-1.97291 0.0755,-3.76284 -1.43551002,-5.03427 -3.30724198,-2.78286 -8.24922798,-0.31393 -7.89606698,3.94474 0.149415,1.80174 1.115359,3.28118 2.632696,4.03224 1.357522,0.67196 2.520461,0.71912 3.86658198,0.15681 z M -10.878271,187.01427 c 0.05636,-2.55197 0.16605,-3.42071 0.463021,-3.66718 0.252849,-0.20984 0.389165,-0.81378 0.389165,-1.72415 0,-2.15169 -0.36744,-2.67399 -0.550833,-0.78299 l -0.153959,1.5875 -0.04448,-1.52135 c -0.02446,-0.83675 -0.163541,-1.52136 -0.309062,-1.52136 -0.145521,0 -0.287097,0.68461 -0.314611,1.52136 l -0.05003,1.52135 -0.09547,-1.52135 c -0.05251,-0.83675 -0.208587,-1.52136 -0.346845,-1.52136 -0.138261,0 -0.271396,0.68461 -0.29586,1.52136 l -0.04448,1.52135 -0.153958,-1.5875 c -0.142447,-1.4688 -0.168796,-1.52073 -0.352396,-0.69453 -0.335497,1.50974 -0.222938,2.5764 0.348543,3.30292 0.504553,0.64143 0.532628,0.90967 0.361927,3.45796 -0.202494,3.02295 -0.08976,3.67561 0.611647,3.54111 0.408096,-0.0783 0.472694,-0.49072 0.537676,-3.43314 z m 18.0875369,-2.87305 c -0.0522,-3.41643 -0.15171,-6.27122 -0.22121,-6.34398 -0.0695,-0.0728 -0.34118,0.13267 -0.60375,0.45652 -0.58488,0.72139 -1.07008,5.93574 -0.56789,6.10314 0.19515,0.0651 0.29708,1.07487 0.29708,2.9433 0,1.56434 0.0835,2.92776 0.18554,3.0298 0.10204,0.10204 0.36993,0.14894 0.59531,0.10422 0.35929,-0.0713 0.39809,-0.84656 0.31492,-6.293 z m 2.78507,2.95739 c 0.0363,-2.66418 0.1271501,-3.34994 0.4981701,-3.7599 0.85464,-0.94437 0.0389,-3.95397 -1.0717201,-3.95397 -0.57676,0 -1.23372,1.00422 -1.38246,2.11321 -0.11523,0.85907 -0.025,1.26101 0.41757,1.85958 0.52156,0.70545 0.55169,0.97427 0.39543,3.52805 -0.18524,3.02752 -0.066,3.69656 0.63481,3.56115 0.40912,-0.0791 0.46905,-0.47388 0.5082,-3.34812 z m 11.2363101,0.34007 c 2.6656,-0.43228 6.1655,-1.48997 8.00288,-2.4185 6.17797,-3.12209 9.29526,-12.47815 6.24797,-18.75234 -2.05984,-4.24109 -7.67371,-7.32055 -14.04539,-7.70452 -3.13921,-0.18918 -5.76378,0.33648 -8.51054,1.70453 -3.3574001,1.67219 -7.8392801,6.66738 -8.7842601,9.79033 -0.1354,0.44749 -0.0731,0.59531 0.25095,0.59531 0.2371,0 1.10833,0.31786 1.93606,0.70635 2.13348,1.00133 4.5040201,3.49094 5.7775501,6.06777 0.98289,1.98874 1.0186,2.15644 1.00534,4.72154 -0.0108,2.0985 -0.1364,2.96654 -0.59518,4.11476 -0.31979,0.80036 -0.58149,1.47875 -0.58156,1.50753 -8e-5,0.0288 0.62494,0.093 1.38893,0.14267 2.08721,0.13577 5.34692,-0.0602 7.90725,-0.47543 z m -34.370128,-9.45503 c 2.539473,-3.82472 6.5247539,-6.49182 11.1179999,-7.44058 1.11498798,-0.23031 2.25928698,-0.41874 2.54288798,-0.41874 1.36114002,0 4.53376002,-11.00662 4.53376002,-15.72878 0,-4.86283 -1.77212,-8.19635 -5.15937702,-9.70525 -1.81992298,-0.81072 -6.40318398,-1.01135 -8.86857398,-0.38823 -2.3232999,0.5872 -5.8023089,2.28269 -7.9483279,3.8736 -6.05114,4.48589 -11.361222,13.07666 -11.361222,18.38042 0,3.54038 4.098388,7.76051 11.195756,11.52832 1.336657,0.7096 2.562257,1.29246 2.723555,1.29526 0.161298,0.003 0.711891,-0.62542 1.223542,-1.39602 z"
         id="path846" /></g></g></svg>
