<?xml version="1.0" encoding="UTF-8" standalone="no"?>
<!-- Created with Inkscape (http://www.inkscape.org/) -->

<svg
   width="79.270805mm"
   height="86.841896mm"
   viewBox="0 0 79.270805 86.841896"
   version="1.1"
   id="svg695"
   xml:space="preserve"
   inkscape:version="1.2.2 (b0a8486541, 2022-12-01)"
   sodipodi:docname="logo.svg"
   xmlns:inkscape="http://www.inkscape.org/namespaces/inkscape"
   xmlns:sodipodi="http://sodipodi.sourceforge.net/DTD/sodipodi-0.dtd"
   xmlns="http://www.w3.org/2000/svg"
   xmlns:svg="http://www.w3.org/2000/svg"><sodipodi:namedview
     id="namedview697"
     pagecolor="#ffffff"
     bordercolor="#000000"
     borderopacity="0.25"
     inkscape:showpageshadow="2"
     inkscape:pageopacity="0.0"
     inkscape:pagecheckerboard="0"
     inkscape:deskcolor="#d1d1d1"
     inkscape:document-units="mm"
     showgrid="false"
     inkscape:zoom="1.1893044"
     inkscape:cx="82.401108"
     inkscape:cy="167.3247"
     inkscape:window-width="1680"
     inkscape:window-height="978"
     inkscape:window-x="0"
     inkscape:window-y="0"
     inkscape:window-maximized="1"
     inkscape:current-layer="layer1" /><defs
     id="defs692" /><g
     inkscape:label="Capa 1"
     inkscape:groupmode="layer"
     id="layer1"
     transform="translate(-80.75794,-128.72542)"><g
       id="g844"
       transform="translate(120.95517,-12.824975)"><path
         style="fill:#b0c83e;stroke-width:0.264583"
         d="m -1.2429324,227.99794 c -3.0984241,-0.83444 -5.373497,-2.57995 -6.402692,-4.91234 -1.061998,-2.40673 -1.36975,-7.92022 -0.71837,-12.86988 0.177144,-1.34607 0.311317,-2.4474 0.298161,-2.4474 -0.01315,0 -0.603067,0.53934 -1.3109171,1.19852 -3.9956235,3.7209 -10.3526905,4.62707 -15.6659815,2.23312 -6.565092,-2.95796 -13.184957,-11.55551 -14.75683,-19.16544 -0.859882,-4.16296 -0.401353,-5.95798 2.125809,-8.32202 3.180317,-2.97503 7.329689,-4.44049 13.415166,-4.73791 l 3.644969,-0.17814 -2.436921,-1.5875 c -3.303053,-2.15173 -6.239903,-5.0717 -7.318098,-7.27604 -1.166282,-2.38443 -1.288061,-3.66228 -0.607272,-6.37222 1.953039,-7.77422 8.929496,-16.26837 16.286278,-19.82926 3.180236,-1.53932 5.7957506,-2.15414 9.2756615,-2.18039 6.8974041,-0.052 11.3358501,3.04556 12.5370321,8.74958 0.40572,1.92662 0.354711,6.10419 -0.10564,8.65208 -0.210341,1.16416 -0.384781,2.20733 -0.387646,2.31815 -0.0029,0.11081 0.656291,-0.33732 1.464783,-0.99584 5.2387114,-4.26699 12.9187954,-5.25087 20.3083934,-2.60166 5.49261,1.96912 9.112292,5.56627 10.339575,10.27518 0.290087,1.11303 0.381429,2.37829 0.305613,4.23333 -0.255924,6.262 -3.344559,11.57195 -8.346485,14.34921 -2.485435,1.38001 -8.161502,2.90648 -11.90293,3.20107 l -2.24564,0.17681 1.848765,1.09966 c 10.143527,6.03349 14.072727,16.48056 9.095005,24.18206 -3.008763,4.65514 -10.004547,9.70072 -16.242075,11.71429 -4.4971344,1.45174 -9.5309434,1.89197 -12.4977134,1.09298 z m 1.67344702,-37.68031 c 2.32417898,-1.01738 3.84180798,-3.2818 4.02588998,-6.00693 0.291208,-4.31105 -2.784629,-7.6032 -7.092249,-7.59102 -2.0388951,0.006 -3.242419,0.47036 -4.752441,1.83457 -4.3512766,3.93112 -2.3573261,11.0874 3.4295239,12.30853 1.2383561,0.26132 3.06528314,0.0344 4.38927612,-0.54515 z m -5.18302612,-1.22738 c -4.615916,-1.99938 -4.579789,-8.60718 0.05765,-10.54435 2.0025471,-0.83651 4.51344312,-0.29002 6.1184821,1.33166 1.201428,1.21389 1.606899,2.20958 1.606899,3.94597 0,1.73639 -0.405471,2.73208 -1.606899,3.94597 -1.60046498,1.61707 -4.205772,2.1742 -6.1761291,1.32075 z m 4.86000712,-1.40876 c 1.10457198,-0.68266 2.01915998,-2.43014 2.01915998,-3.85796 0,-3.03424 -2.99991796,-5.3898 -5.8773881,-4.61498 -2.2024529,0.59306 -3.9428579,3.22281 -3.5431129,5.35364 0.643623,3.43081 4.361802,4.99784 7.40134102,3.1193 z M -11.252583,186.98348 c -0.172376,-2.7992 -0.148357,-3.03346 0.379905,-3.70503 0.589037,-0.74884 0.715854,-2.25538 0.299334,-3.55596 -0.15616,-0.48761 -0.218768,-0.21524 -0.23821,1.03629 -0.0145,0.93375 -0.108527,1.61558 -0.208936,1.51517 -0.10041,-0.1004 -0.151755,-0.76301 -0.114102,-1.47244 0.03765,-0.70944 -0.05879,-1.36853 -0.214312,-1.46465 -0.187606,-0.11595 -0.298143,0.38702 -0.328441,1.49449 l -0.04567,1.66926 -0.173249,-1.71979 -0.173249,-1.71979 -0.04567,1.65365 c -0.02512,0.9095 -0.16473,1.65364 -0.310251,1.65364 -0.145521,0 -0.279101,-0.74414 -0.296846,-1.65364 l -0.03226,-1.65365 -0.229034,1.57122 c -0.197191,1.35278 -0.155924,1.69513 0.296847,2.46252 0.441,0.74744 0.525881,1.37286 0.525881,3.87479 0,1.64092 0.07117,3.05466 0.15816,3.14164 0.08699,0.087 0.332748,0.0912 0.546134,0.009 0.324638,-0.12458 0.357939,-0.6367 0.203967,-3.13701 z m 18.1817296,-3.02766 c -0.05076,-3.27422 -0.180826,-6.04746 -0.289025,-6.16277 -0.484222,-0.51604 -0.904645,0.79077 -1.071504,3.33057 -0.137589,2.09422 -0.09845,2.76577 0.174458,2.99349 0.273418,0.22813 0.313118,0.9264 0.178125,3.13271 l -0.173714,2.83915 0.636981,-0.09 0.636979,-0.09 z m 2.641328,3.00139 c -0.08952,-2.71859 -0.05186,-3.00067 0.5003644,-3.74759 0.465746,-0.62995 0.562499,-1.02137 0.439629,-1.77853 -0.189838,-1.16983 -0.8447704,-2.23777 -1.3723544,-2.23777 -1.131337,0 -1.765231,3.15953 -0.839229,4.18297 0.412438,0.45584 0.477295,0.95688 0.440285,3.40133 -0.05375,3.54982 -0.08704,3.32002 0.46509,3.21095 0.414829,-0.082 0.452945,-0.39747 0.366215,-3.03136 z"
         id="path848" /><path
         style="fill:#ffffff;stroke:#ffffff;stroke-width:1.32292;stroke-linecap:round"
         d="m -13.419019,185.77908 c -0.09968,-0.83638 -0.222272,-5.49134 -0.222272,-5.49134 l 0.789861,-1.41279 c 0,0 2.91601,-0.38437 3.4208297,-0.38437 0.5048197,0 5.3351138,-2.15712 5.3351138,-2.15712 l 7.4057562,0.4464 4.1530455,0.67279 3.0073578,2.20475 0.47984,2.41823 -0.832453,3.29749 c 0,0 0.76405,4.22594 0.224226,4.65469 -0.539824,0.42874 -2.7547013,1.0909 -2.7547013,1.0909 l -6.2328927,0.11124 -8.2471232,-0.0159 -5.2063408,-0.68203 -0.634791,-1.68592 z"
         id="path966" /><path
         style="fill:#070808;stroke-width:0.264583"
         d="m 0.02203656,228.14879 c -6.98416396,-1.09176 -9.40662296,-5.52942 -8.55032796,-15.66321 0.164068,-1.94166 0.364895,-3.79818 0.446283,-4.1256 0.212471,-0.85477 -0.05786,-0.74875 -1.5797499,0.61956 -4.5394167,4.08133 -11.0685027,4.62247 -16.8342807,1.39527 -4.540264,-2.54127 -8.660767,-7.24711 -11.406414,-13.02675 -2.167083,-4.56175 -2.777308,-8.42062 -1.751873,-11.07828 0.931007,-2.41293 5.20213,-5.34635 9.305638,-6.39115 2.218489,-0.56485 6.370101,-1.02136 8.299979,-0.91266 0.892572,0.0503 1.620311,0.0319 1.617195,-0.0409 -0.0031,-0.0728 -1.045131,-0.78264 -2.315586,-1.57751 -2.877119,-1.80008 -6.85744,-5.68484 -7.736356,-7.55062 -1.725821,-3.66359 -0.460167,-8.90811 3.633901,-15.05788 3.278333,-4.92444 8.601263,-9.50706 13.316223,-11.46422 5.2926846,-2.19696 11.2862486,-2.20328 15.3896006,-0.0162 3.928173,2.09369 5.761828,6.21305 5.394335,12.11852 -0.08603,1.38245 -0.323352,3.28745 -0.527388,4.23334 -0.204037,0.94588 -0.33641,1.75706 -0.294164,1.80262 0.04225,0.0456 0.714224,-0.40083 1.493284,-0.99197 5.7057244,-4.32943 12.3871094,-5.31186 19.6727264,-2.89268 8.249998,2.7394 12.177498,8.28559 11.252818,15.8906 -0.52028,4.27903 -2.04102,7.56778 -4.755723,10.28477 -2.094912,2.09667 -3.872632,3.14295 -7.177336,4.22424 -2.509115,0.82097 -7.726304,1.84492 -9.400217,1.84492 -0.494863,0 -0.89621,0.0893 -0.891881,0.19843 0.0043,0.10915 0.718314,0.60528 1.58664,1.10253 2.335374,1.33735 5.649473,4.08392 7.160749,5.9345 1.72492,2.11219 3.274153,5.33756 3.794959,7.90078 1.101479,5.42108 -0.122722,8.93497 -4.740405,13.60664 -4.812451,4.86872 -11.064256,8.25473 -17.2142104,9.3233 -2.366473,0.41118 -5.637379,0.55206 -7.18841904,0.30961 z M 8.4672246,225.3894 c 4.7389814,-1.20872 9.9944874,-4.20991 13.6931584,-7.81956 4.154022,-4.05404 5.418095,-7.64554 4.393028,-12.48151 -1.137227,-5.36512 -5.558375,-10.26398 -12.393927,-13.73311 -3.037279,-1.54146 -3.89463,-1.83635 -3.89463,-1.3396 0,0.53528 -4.1267464,4.58427 -5.8187224,5.7091 -2.199944,1.46252 -3.55850307,2.07851 -5.965158,2.70469 l -1.842162,0.4793 -0.697592,2.77433 c -2.090203,8.31275 -2.579151,17.13193 -1.140733,20.5754 1.566122,3.74918 6.664003,4.91707 13.666738,3.13096 z M -15.580977,209.87721 c 2.019046,-0.62362 4.028588,-2.04951 5.6632767,-4.01843 1.0857919,-1.30779 3.7783869,-6.30004 3.7783869,-7.00537 0,-0.1738 -0.775766,-0.69791 -1.723927,-1.16469 -4.5878506,-2.25859 -7.9932946,-8.39731 -7.7599666,-13.98825 l 0.08244,-1.9754 -1.05396,-0.2533 c -0.579678,-0.13932 -3.197085,-0.26037 -5.81646,-0.26901 -5.252423,-0.0173 -7.046195,0.28738 -10.072484,1.71086 -1.852554,0.8714 -3.904643,2.58073 -4.538955,3.78082 -0.72145,1.36495 -0.545848,4.08114 0.459716,7.11081 2.462032,7.41785 9.005403,14.69518 14.548598,16.1805 2.070878,0.55489 4.413346,0.51537 6.433335,-0.10854 z m 15.33297956,-19.19804 c 3.98925004,-1.35928 6.00546004,-6.32746 4.08696304,-10.07077 -2.235607,-4.36205 -7.638941,-5.35763 -11.479061,-2.11504 -3.2982056,2.785 -2.8001836,9.0303 0.902594,11.31874 2.135775,1.31998 4.308353,1.61026 6.48950396,0.86707 z m -3.71231596,-1.41843 c -1.530326,-0.3831 -2.862789,-1.47873 -3.601688,-2.96151 -0.905574,-1.81725 -0.896456,-3.1757 0.03363,-5.01031 2.624643,-5.17718 10.384896,-3.28589 10.384896,2.53095 0,1.38253 -0.555366,2.88514 -1.401691,3.79245 -1.26975704,1.36126 -3.6581,2.08829 -5.415143,1.64842 z m 3.05501997,-0.95699 c 1.44579896,-0.60394 2.40191903,-1.65027 2.83230103,-3.09952 0.58589,-1.97291 0.0755,-3.76284 -1.43551307,-5.03427 -3.30724093,-2.78286 -8.24922693,-0.31393 -7.89606593,3.94474 0.149415,1.80174 1.115359,3.28118 2.632696,4.03224 1.357522,0.67196 2.520461,0.71912 3.86658197,0.15681 z M -11.224832,186.81919 c 0.05636,-2.55197 0.16605,-3.42071 0.463021,-3.66718 0.252849,-0.20984 0.389165,-0.81378 0.389165,-1.72415 0,-2.15169 -0.36744,-2.67399 -0.550833,-0.78299 l -0.153959,1.5875 -0.04448,-1.52135 c -0.02446,-0.83675 -0.163541,-1.52136 -0.309062,-1.52136 -0.145521,0 -0.287097,0.68461 -0.314611,1.52136 l -0.05003,1.52135 -0.09547,-1.52135 c -0.05251,-0.83675 -0.208587,-1.52136 -0.346845,-1.52136 -0.138261,0 -0.271396,0.68461 -0.29586,1.52136 l -0.04448,1.52135 -0.153958,-1.5875 c -0.142447,-1.4688 -0.168796,-1.52073 -0.352396,-0.69453 -0.335497,1.50974 -0.222938,2.5764 0.348543,3.30292 0.504553,0.64143 0.532628,0.90967 0.361927,3.45796 -0.202494,3.02295 -0.08976,3.67561 0.611647,3.54111 0.408096,-0.0783 0.472694,-0.49072 0.537676,-3.43314 z m 18.0875436,-2.87305 c -0.05217,-3.41643 -0.151712,-6.27122 -0.221213,-6.34398 -0.0695,-0.0728 -0.341185,0.13267 -0.603747,0.45652 -0.584888,0.72139 -1.070084,5.93574 -0.567897,6.10314 0.195157,0.0651 0.297082,1.07487 0.297082,2.9433 0,1.56434 0.08349,2.92776 0.185537,3.0298 0.102044,0.10204 0.369935,0.14894 0.595312,0.10422 0.359294,-0.0713 0.398092,-0.84656 0.314926,-6.293 z m 2.7850697,2.95739 c 0.03629,-2.66418 0.127151,-3.34994 0.4981637,-3.7599 0.854641,-0.94437 0.0389,-3.95397 -1.0717164,-3.95397 -0.576763,0 -1.23372,1.00422 -1.382466,2.11321 -0.115226,0.85907 -0.02498,1.26101 0.417576,1.85958 0.521554,0.70545 0.551685,0.97427 0.395433,3.52805 -0.185243,3.02752 -0.06598,3.69656 0.634804,3.56115 0.4091247,-0.0791 0.4690527,-0.47388 0.5082057,-3.34812 z m 11.2363077,0.34007 c 2.665595,-0.43228 6.165495,-1.48997 8.002878,-2.4185 6.177973,-3.12209 9.295263,-12.47815 6.247972,-18.75234 -2.059837,-4.24109 -7.673708,-7.32055 -14.045391,-7.70452 -3.139215,-0.18918 -5.763781,0.33648 -8.510537,1.70453 -3.3574044,1.67219 -7.8392874,6.66738 -8.7842624,9.79033 -0.135406,0.44749 -0.07309,0.59531 0.250952,0.59531 0.237098,0 1.108324,0.31786 1.936059,0.70635 2.133476,1.00133 4.5040134,3.49094 5.7775514,6.06777 0.98289,1.98874 1.018595,2.15644 1.00534,4.72154 -0.01085,2.0985 -0.136404,2.96654 -0.595181,4.11476 -0.319788,0.80036 -0.581493,1.47875 -0.581567,1.50753 -7.1e-5,0.0288 0.624946,0.093 1.38893,0.14267 2.087211,0.13577 5.346928,-0.0602 7.907256,-0.47543 z m -34.370132,-9.45503 c 2.539473,-3.82472 6.5247546,-6.49182 11.1180006,-7.44058 1.114988,-0.23031 2.25928696,-0.41874 2.54288396,-0.41874 1.36114304,0 4.53376204,-11.00662 4.53376204,-15.72878 0,-4.86283 -1.772121,-8.19635 -5.15937504,-9.70525 -1.81992296,-0.81072 -6.40318396,-1.01135 -8.86857396,-0.38823 -2.3233006,0.5872 -5.8023096,2.28269 -7.9483286,3.8736 -6.05114,4.48589 -11.361222,13.07666 -11.361222,18.38042 0,3.54038 4.098388,7.76051 11.195756,11.52832 1.336657,0.7096 2.562257,1.29246 2.723555,1.29526 0.161298,0.003 0.711891,-0.62542 1.223542,-1.39602 z"
         id="path846" /></g></g></svg>
